{"glyphs":{"0":{"ha":625,"x_min":-11,"x_max":729,"o":"m 165 17 q 33 127 76 50 q -11 314 -11 205 q 24 525 -11 414 q 124 738 60 637 q 275 911 189 839 q 456 1008 361 984 q 500 1014 476 1014 q 616 969 564 1014 q 699 851 669 924 q 729 700 729 779 q 725 648 729 673 q 667 436 713 550 q 554 222 622 323 q 405 61 486 122 q 243 0 323 0 q 165 17 204 0 m 415 864 q 262 683 321 786 q 177 476 203 580 q 151 288 151 373 q 158 214 151 247 q 176 172 165 182 q 237 147 203 147 q 386 250 307 147 q 523 497 465 353 q 590 741 581 642 q 578 809 590 773 q 544 870 567 844 q 489 896 520 896 q 415 864 454 896 z "},"1":{"ha":433,"x_min":0,"x_max":659,"o":"m 150 -8 q 99 6 111 -3 q 82 35 87 16 q 66 62 77 54 q 39 76 58 70 q 10 91 20 82 q 0 121 0 100 q 58 228 29 174 q 115 334 87 281 q 100 304 116 334 q 171 427 126 350 q 321 683 216 505 q 500 983 427 861 q 525 989 513 989 q 554 978 539 989 q 575 966 570 968 q 601 972 581 966 q 635 978 622 978 q 659 962 654 978 q 482 628 574 796 q 350 387 391 460 q 291 272 334 357 q 209 109 248 187 q 150 -8 169 31 z "},"2":{"ha":791,"x_min":9,"x_max":909,"o":"m 282 768 q 364 832 318 795 q 441 892 410 870 q 511 932 471 914 q 602 965 550 951 q 673 977 641 977 q 765 959 722 977 q 840 910 808 941 q 891 838 873 879 q 909 755 909 797 q 872 640 909 692 q 797 567 850 607 q 604 430 743 528 q 391 269 465 332 q 298 158 317 205 q 387 163 330 160 q 494 165 443 165 q 705 144 602 165 q 714 123 714 136 q 712 105 714 116 q 710 93 710 94 q 715 79 710 85 q 736 32 736 58 q 725 1 736 14 q 604 3 682 2 q 450 6 527 5 q 329 8 372 7 q 237 6 296 7 q 120 3 178 5 q 28 1 61 2 q 20 16 20 8 q 22 26 20 19 q 25 39 25 33 q 20 50 24 43 q 13 66 16 58 q 9 83 9 74 q 46 122 9 83 q 208 299 123 218 q 374 442 294 379 q 548 572 455 505 q 681 673 641 639 q 730 757 730 717 q 726 779 730 770 q 720 790 722 787 q 654 808 688 808 q 571 784 608 808 q 464 702 534 760 q 351 628 393 644 q 337 654 340 637 q 334 694 334 671 q 330 714 334 710 q 304 735 326 723 q 282 768 282 747 z "},"3":{"ha":742,"x_min":-4,"x_max":842,"o":"m 272 846 q 415 942 353 907 q 545 994 477 977 q 646 1011 610 1011 q 700 1000 682 1011 q 761 951 717 988 q 842 819 825 911 q 807 712 842 774 q 714 598 772 649 q 586 533 655 547 q 632 514 597 528 q 688 485 667 500 q 725 444 709 471 q 746 374 741 416 q 708 244 746 311 q 591 117 671 176 q 396 22 511 57 q 312 5 362 12 q 218 -1 262 -1 q 45 50 86 -1 q -4 174 -4 110 q 23 265 -4 221 q 95 338 50 309 q 191 375 140 367 q 208 349 208 370 q 208 330 208 337 q 207 313 208 322 q 226 296 209 307 q 243 275 243 284 q 240 267 243 272 q 147 214 177 236 q 117 155 117 192 q 216 129 140 129 q 369 153 289 129 q 510 225 449 177 q 582 339 571 273 q 548 419 582 391 q 465 458 515 448 q 355 468 414 468 q 353 482 353 473 q 359 500 353 490 q 367 517 366 511 q 363 532 367 522 q 359 546 359 542 q 364 557 359 553 q 471 605 399 570 q 615 695 543 640 q 686 803 686 750 q 679 832 686 817 q 625 852 661 852 q 543 836 591 852 q 430 786 495 819 q 315 726 365 753 q 300 755 300 740 q 303 774 300 760 q 306 804 306 788 q 294 814 303 810 q 278 825 284 819 q 272 846 272 832 z "},"4":{"ha":675,"x_min":-5,"x_max":882,"o":"m 275 685 q 418 790 361 749 q 520 858 475 830 q 612 912 566 885 q 761 1004 659 940 q 786 1013 779 1013 q 798 1008 794 1013 q 809 995 802 1004 q 821 983 816 985 q 840 987 825 983 q 864 991 856 991 q 882 971 880 991 l 604 472 q 755 467 660 467 q 760 457 760 463 q 748 431 760 449 q 737 399 737 414 q 753 376 743 385 q 764 361 764 366 q 758 346 764 355 l 532 343 l 368 -4 q 339 2 351 -4 q 318 19 328 9 q 304 33 309 30 q 285 37 300 36 q 262 44 270 39 q 253 64 254 49 l 379 342 q 261 331 334 338 q 171 325 188 325 q 181 327 178 326 q 184 327 184 328 q 118 314 184 327 q 8 292 52 300 q -5 317 -5 305 q 5 339 -5 326 q 15 358 16 352 q 8 376 15 363 q 1 395 1 389 q 12 415 1 404 q 143 558 56 466 q 275 685 231 651 m 421 637 q 324 562 404 626 q 197 458 245 498 q 317 467 208 458 q 387 471 335 468 q 441 474 439 473 q 452 475 443 474 l 629 793 q 511 704 587 760 q 421 637 435 647 z "},"5":{"ha":783,"x_min":-3,"x_max":971,"o":"m 732 968 q 811 971 771 968 q 863 975 850 975 q 929 971 882 975 q 949 946 949 968 q 929 904 949 926 q 926 897 926 901 q 949 865 926 888 q 971 833 971 842 q 933 821 971 821 q 737 820 812 821 q 564 819 663 820 l 419 607 q 585 582 513 607 q 697 508 657 556 q 737 395 737 459 q 665 204 737 306 q 551 94 623 141 q 394 22 478 46 q 232 -3 310 -3 q 63 42 129 -3 q -3 172 -3 86 q 32 235 9 208 q 87 283 56 262 q 155 315 119 304 q 203 307 170 315 q 258 298 237 298 q 223 263 250 289 q 185 226 197 238 q 164 196 174 214 q 155 155 155 178 q 158 132 155 149 q 232 119 189 119 q 353 146 292 119 q 468 216 415 172 q 552 307 522 260 q 583 393 583 354 q 574 432 583 417 q 495 492 545 473 q 385 511 445 511 q 268 493 330 511 q 256 507 258 498 q 253 529 253 515 q 250 546 253 541 q 231 563 248 552 q 215 585 215 574 q 348 768 221 607 q 504 961 474 928 q 732 968 611 961 z "},"6":{"ha":608,"x_min":-9,"x_max":704,"o":"m 125 607 q 254 758 171 669 q 430 923 337 846 q 591 1028 523 1000 q 604 1031 604 1031 q 618 1018 613 1031 q 631 1000 623 1004 q 663 997 639 997 q 704 983 695 997 q 606 911 673 960 q 495 828 540 863 q 403 744 450 792 q 329 653 356 696 q 454 675 396 675 q 573 645 524 675 q 649 561 623 616 q 676 435 676 506 q 628 286 671 362 q 517 142 585 209 q 369 36 449 76 q 218 -4 290 -4 q 79 50 136 -4 q -9 262 -9 134 q 7 376 -9 317 q 54 494 23 435 q 125 607 84 553 m 509 533 q 422 557 489 557 q 334 547 380 557 q 295 530 312 543 q 269 503 278 516 q 250 473 259 490 q 237 456 240 456 q 232 497 233 456 q 156 333 180 393 q 132 229 132 273 q 176 157 132 176 q 208 154 198 154 q 324 182 267 154 q 428 257 382 210 q 503 359 475 304 q 533 469 530 414 q 509 533 533 500 z "},"7":{"ha":484,"x_min":7,"x_max":730,"o":"m 110 957 q 166 974 135 968 q 233 984 198 981 q 297 989 269 988 q 370 991 326 990 q 529 999 511 999 q 690 990 562 999 q 701 951 693 968 q 716 938 703 948 q 730 921 730 927 q 728 914 730 920 q 658 822 704 884 q 512 621 612 761 q 316 337 412 481 q 158 81 221 193 q 136 37 150 65 q 115 -5 122 8 q 90 4 102 -5 q 71 23 79 13 q 57 40 62 33 q 32 50 56 41 q 7 72 7 59 q 54 158 8 72 q 187 384 114 269 q 341 619 260 500 q 460 793 421 739 q 517 873 498 848 l 131 838 q 119 861 119 847 q 123 880 119 864 q 126 905 126 895 q 116 922 125 912 q 107 942 107 932 q 110 957 107 950 z "},"8":{"ha":684,"x_min":-1,"x_max":758,"o":"m 243 942 q 424 1048 298 1031 q 526 1025 477 1048 q 607 961 575 1002 q 640 867 639 919 q 675 889 650 871 q 711 916 700 908 q 736 926 722 924 q 758 827 758 891 q 718 792 745 814 q 679 760 692 770 q 685 734 682 749 q 688 711 687 719 q 666 691 684 705 q 642 671 648 677 q 629 655 637 667 q 613 636 621 644 q 595 627 606 628 q 585 693 587 646 q 544 676 562 688 q 506 649 525 664 q 459 611 488 634 q 407 575 430 589 q 426 510 414 538 q 467 431 438 483 q 509 342 496 378 q 522 268 522 307 q 514 208 522 239 q 408 49 487 112 q 225 -14 328 -14 q 147 -4 184 -14 q 37 61 75 12 q -1 180 -1 111 q 62 376 -1 271 q 243 568 125 480 q 222 664 232 621 q 206 741 212 708 q 200 802 200 774 q 243 942 200 871 m 277 457 q 224 388 262 436 q 165 309 187 340 q 127 244 144 278 q 110 182 111 211 q 195 102 110 120 q 220 98 208 98 q 309 148 273 98 q 345 271 345 198 q 277 457 345 372 m 407 930 q 339 806 339 895 q 359 669 339 758 l 538 800 q 507 895 530 867 q 437 933 485 923 l 407 930 z "},"9":{"ha":575,"x_min":4,"x_max":636,"o":"m 7 591 q 4 624 4 612 q 40 763 4 688 q 152 901 77 837 q 335 996 227 964 q 386 1003 355 1003 q 505 970 447 1003 q 600 883 563 938 q 636 766 636 828 q 633 736 636 759 q 574 546 616 629 q 478 399 532 463 q 335 241 425 334 q 277 175 314 217 q 203 96 240 134 q 127 28 167 58 q 61 -7 88 -1 q 38 27 45 15 q 23 51 30 39 q 7 83 16 63 l 347 449 q 180 429 238 429 q 97 444 132 429 q 40 495 63 458 q 7 591 17 531 m 361 878 q 228 792 275 850 q 139 631 180 734 q 168 575 140 593 q 240 557 196 557 q 341 574 288 557 q 424 612 394 591 q 431 615 427 615 q 433 590 433 615 q 463 645 435 594 q 499 720 490 696 q 509 770 509 745 q 476 865 509 811 q 410 885 450 885 q 361 878 391 885 z "},"<":{"ha":1042,"x_min":174,"x_max":868,"o":"m 174 0 l 174 868 l 868 868 l 868 0 l 174 0 m 846 22 l 846 846 l 196 846 l 196 22 l 846 22 z "}," ":{"ha":347,"x_min":0,"x_max":0,"o":""},"!":{"ha":433,"x_min":3,"x_max":492,"o":"m 119 311 q 148 535 119 392 q 226 809 177 677 q 329 1002 275 941 q 363 997 351 1002 q 388 984 375 993 q 408 974 401 976 q 436 975 420 974 q 457 977 452 977 q 492 958 478 977 l 180 292 q 160 301 168 293 q 151 310 151 310 q 119 311 122 310 m 41 11 q 14 43 25 18 q 3 100 3 68 q 24 178 3 143 q 89 224 45 213 q 110 227 102 227 q 179 129 170 227 q 144 41 174 77 q 75 4 115 4 q 41 11 60 4 z "},"\"":{"ha":383,"x_min":26,"x_max":437,"o":"m 75 890 q 107 970 90 918 q 138 1049 125 1023 q 167 1082 151 1076 q 212 1046 197 1078 q 228 965 228 1015 q 207 844 228 905 q 145 743 186 784 q 53 701 104 701 q 26 704 43 701 q 30 758 28 735 q 44 817 33 780 q 75 890 55 853 m 285 899 q 319 982 299 925 q 350 1062 340 1040 q 376 1090 361 1084 q 422 1054 406 1086 q 437 972 437 1021 q 417 853 437 914 q 355 751 396 792 q 262 710 315 710 q 236 713 255 710 q 240 765 237 743 q 253 825 242 788 q 285 899 264 861 z "},"#":{"ha":742,"x_min":-7,"x_max":840,"o":"m 154 281 l -7 279 l 43 379 l 201 379 l 314 623 l 154 619 l 203 721 l 361 720 l 492 1003 l 593 1002 l 463 721 l 581 720 l 714 1002 l 812 1002 l 679 720 l 840 721 l 793 621 l 633 621 l 519 378 l 679 380 l 633 281 l 473 281 l 342 -3 l 240 -1 l 372 279 l 254 281 l 119 -1 l 22 -1 l 154 281 m 301 380 l 422 379 l 533 619 l 414 621 l 301 380 z "},"$":{"ha":750,"x_min":-56,"x_max":1031,"o":"m 732 1075 q 763 1087 739 1075 q 804 1100 788 1100 q 829 1089 818 1100 q 793 1025 815 1064 q 771 985 771 987 q 848 996 791 990 q 909 1002 878 1002 q 993 975 964 1002 q 1031 884 1022 948 q 923 808 998 836 q 751 774 848 780 q 738 794 749 781 q 726 817 726 808 q 766 861 726 836 q 747 868 758 868 q 715 861 736 868 q 638 715 685 804 q 591 624 592 627 q 669 604 640 613 q 713 581 699 595 q 766 452 766 530 q 690 264 766 351 q 601 196 661 230 q 474 133 541 162 q 317 71 408 104 q 265 -33 271 -22 q 253 -57 259 -44 q 244 -79 251 -66 q 221 -93 237 -93 q 203 -82 205 -87 q 189 -77 202 -77 q 135 -56 135 -77 q 183 39 135 -56 q 85 22 114 22 q 9 41 48 22 q -56 139 -56 78 q -19 237 -56 186 q 79 328 18 288 q 208 383 141 368 q 230 363 226 372 q 236 332 234 354 q 154 280 191 313 q 103 205 118 248 q 144 189 109 189 q 275 210 185 189 q 381 419 330 323 q 435 515 433 515 q 368 542 397 528 q 318 576 340 556 q 282 625 296 595 q 269 693 269 654 q 320 783 277 736 q 446 877 363 831 q 642 954 528 922 q 663 1010 649 975 q 685 1055 677 1045 q 695 1068 685 1061 q 732 1075 705 1075 m 533 504 q 492 420 514 465 q 448 332 470 376 q 404 244 426 288 q 513 280 471 262 q 588 332 555 298 q 636 418 621 365 q 606 467 636 444 q 533 504 576 490 m 496 646 l 579 802 q 479 749 541 785 q 407 676 418 713 q 408 675 407 675 q 408 682 408 675 q 433 656 408 665 q 496 646 460 646 z "},"%":{"ha":642,"x_min":90,"x_max":807,"o":"m 472 488 q 391 367 437 438 q 300 223 345 296 q 227 100 256 151 q 175 4 197 49 q 164 -4 171 -4 q 118 34 146 -4 q 90 98 90 72 q 141 217 92 129 q 260 413 189 305 q 395 604 330 520 q 500 735 446 672 q 620 866 555 798 q 733 978 686 935 q 793 1021 781 1020 q 807 990 807 1021 q 801 944 807 970 q 791 913 795 918 q 703 797 758 866 q 618 687 649 727 q 558 608 587 646 q 472 488 529 569 m 383 211 q 406 302 383 252 q 467 399 429 352 q 542 475 505 447 q 606 503 579 503 q 644 492 629 499 q 666 477 659 486 q 694 440 674 469 q 721 406 715 412 q 733 361 733 391 q 698 232 733 307 q 608 101 663 157 q 501 46 553 46 q 471 52 484 46 q 402 109 421 68 q 383 211 384 151 m 543 977 q 546 946 546 966 q 506 806 546 884 q 409 672 467 728 q 306 616 352 616 q 289 619 300 616 q 208 663 237 635 q 174 743 179 692 q 172 774 172 753 q 196 896 172 840 q 256 995 220 953 q 334 1062 293 1036 q 406 1092 375 1088 q 441 1086 426 1092 q 466 1072 457 1081 q 476 1051 474 1062 q 499 1027 478 1039 q 530 1007 519 1016 q 543 977 541 998 m 643 427 q 589 391 621 427 q 528 311 556 356 q 479 183 479 227 q 496 147 479 156 q 510 143 502 143 q 610 268 549 143 q 641 341 630 304 q 652 401 652 378 q 643 427 652 422 m 281 728 q 290 724 285 724 q 347 760 310 724 q 410 832 385 795 q 475 978 475 932 q 463 1003 475 994 q 446 999 454 1003 q 427 987 439 996 q 407 976 414 979 q 389 972 399 972 q 344 939 373 972 q 292 856 315 905 q 268 771 268 807 q 281 728 268 744 z "},"&":{"ha":908,"x_min":-4,"x_max":961,"o":"m 401 322 q 383 350 383 331 q 388 371 383 360 q 396 386 393 382 q 476 419 422 399 q 584 454 531 439 q 696 481 637 470 q 804 492 756 492 q 888 476 854 492 q 905 454 901 469 q 914 408 909 438 q 931 392 924 398 q 943 376 938 385 q 947 353 947 366 q 840 331 898 336 q 701 326 782 326 q 613 170 687 246 q 437 45 540 94 q 239 -3 334 -3 q 89 41 149 -3 q -4 200 -4 104 q 27 320 -4 258 q 111 438 59 382 q 227 542 163 495 q 353 612 292 588 q 252 771 252 696 q 278 845 252 810 q 353 910 304 880 q 470 964 401 940 q 623 1004 539 988 q 690 1010 650 1010 q 782 1001 735 1010 q 867 973 829 991 q 931 926 905 955 q 961 860 958 897 q 894 814 917 828 q 848 793 871 800 q 797 784 825 785 q 725 782 769 782 q 696 838 696 819 q 711 864 696 853 q 762 892 727 876 q 638 874 701 884 q 518 850 575 865 q 417 804 460 834 q 371 732 374 774 q 382 721 375 728 q 400 705 389 713 q 500 682 435 682 q 574 688 539 682 q 625 699 610 694 q 633 685 631 692 q 635 668 635 677 q 637 647 636 658 q 653 625 640 637 q 671 607 666 613 q 676 586 676 601 q 454 500 591 567 q 216 347 317 433 q 114 183 114 261 q 211 131 120 131 q 325 151 263 131 q 439 210 387 172 q 519 301 492 249 q 410 256 446 260 q 400 272 400 262 q 404 290 400 275 q 407 311 407 304 q 401 322 407 319 z "},"'":{"ha":208,"x_min":26,"x_max":228,"o":"m 75 890 q 107 970 90 918 q 138 1049 125 1023 q 167 1082 151 1076 q 212 1046 197 1078 q 228 965 228 1015 q 207 844 228 905 q 145 743 186 784 q 53 701 104 701 q 26 704 43 701 q 30 758 28 735 q 44 817 33 780 q 75 890 55 853 z "},"(":{"ha":350,"x_min":-7,"x_max":457,"o":"m 207 530 q 132 218 132 330 q 139 153 132 176 q 163 85 145 130 q 165 69 165 74 q 136 23 165 44 q 77 1 107 1 q 20 57 47 3 q -7 203 -7 111 q 13 359 -7 271 q 74 550 32 448 q 252 869 149 733 q 411 1010 355 1006 q 443 997 429 1010 q 457 968 457 984 q 399 876 456 961 q 291 705 341 791 q 207 530 241 620 z "},")":{"ha":416,"x_min":26,"x_max":490,"o":"m 277 494 q 335 679 318 606 q 351 807 351 753 q 343 878 351 849 q 321 940 335 907 q 318 956 318 952 q 347 1003 318 982 q 407 1023 376 1023 q 444 999 425 1022 q 477 931 463 977 q 490 822 490 886 q 410 475 490 671 q 296 250 361 356 q 170 81 231 144 q 72 16 110 18 q 41 28 55 16 q 26 57 26 41 q 72 129 28 63 q 144 240 115 195 q 212 355 173 284 q 277 494 252 426 z "},"*":{"ha":701,"x_min":302,"x_max":787,"o":"m 494 677 q 478 667 487 667 q 466 670 473 667 q 457 676 460 674 l 514 828 l 367 693 q 363 714 367 708 q 347 720 360 720 q 332 728 336 720 q 329 755 329 736 l 489 857 l 304 846 q 313 858 308 850 q 318 873 318 866 q 311 885 318 880 q 302 897 302 892 q 310 910 302 904 q 322 920 317 917 l 500 893 l 390 1011 q 411 1017 399 1012 q 424 1032 424 1021 q 434 1057 424 1052 q 452 1063 445 1063 l 534 920 l 557 1080 q 566 1075 559 1078 q 578 1072 572 1072 q 595 1082 589 1072 q 608 1089 598 1089 q 622 1086 615 1089 q 631 1082 628 1084 l 576 918 l 726 1053 q 731 1040 726 1048 q 750 1032 736 1032 q 771 1021 767 1032 q 775 1002 775 1009 l 599 890 l 781 900 q 773 890 778 897 q 768 879 768 884 q 777 869 768 871 q 787 860 787 865 q 780 846 787 852 q 768 838 773 840 l 589 851 l 693 746 q 674 738 686 744 q 663 720 663 731 q 652 702 663 707 q 633 696 641 696 l 555 831 l 534 677 q 526 685 532 680 q 511 689 520 689 q 494 677 501 689 z "},"+":{"ha":550,"x_min":37,"x_max":671,"o":"m 443 550 l 671 575 q 653 554 664 569 q 643 522 643 540 q 646 509 643 517 q 640 477 646 490 q 631 458 635 465 l 401 437 l 301 200 q 284 210 296 204 q 261 215 273 215 q 250 212 256 215 q 196 196 222 196 q 185 198 191 196 q 176 200 178 199 l 272 421 l 37 392 q 55 416 44 400 q 65 447 65 432 q 62 458 65 453 q 58 476 58 469 q 70 507 58 494 q 90 525 82 520 l 315 538 q 348 610 327 564 q 389 703 368 656 q 421 775 410 749 q 439 789 427 781 q 469 798 452 798 q 500 783 486 798 q 518 778 505 778 q 535 780 526 778 q 549 783 545 782 l 443 550 z "},",":{"ha":241,"x_min":-49,"x_max":261,"o":"m 58 -4 q 31 27 41 6 q 21 71 21 49 q 33 117 21 98 q 70 158 50 142 q 112 180 90 174 q 160 187 134 187 q 217 170 195 186 q 245 143 238 154 q 261 81 261 116 q 219 -41 261 20 q 113 -143 178 -102 q -11 -184 49 -184 q -49 -180 -30 -184 q -31 -149 -49 -166 q 18 -109 -12 -132 q 65 -68 48 -86 q 82 -35 82 -50 q 58 -4 82 -17 z "},"-":{"ha":467,"x_min":-18,"x_max":461,"o":"m 0 450 q 16 488 16 462 q 17 499 16 494 q 17 525 17 505 l 458 583 q 460 567 458 576 q 461 553 461 557 q 450 525 461 540 q 437 496 437 511 q 438 489 437 493 q 440 479 439 484 q 441 471 441 475 q 441 458 441 467 l -17 383 q -17 404 -17 396 q -18 419 -18 411 q 0 450 -18 435 z "},".":{"ha":292,"x_min":26,"x_max":257,"o":"m 35 50 q 26 87 26 66 q 46 153 26 121 q 98 204 66 185 q 171 227 133 227 q 218 215 197 227 q 249 183 239 203 q 257 146 257 167 q 238 81 257 113 q 184 29 218 50 q 113 7 151 7 q 66 18 87 7 q 35 50 45 30 z "},"/":{"ha":425,"x_min":-65,"x_max":635,"o":"m 232 564 q 345 814 275 663 q 475 1079 415 966 q 546 1193 535 1193 q 570 1190 555 1190 q 593 1193 579 1190 q 614 1196 606 1196 q 635 1193 627 1196 l 24 -176 q -3 -177 6 -176 q -23 -179 -13 -178 q -33 -180 -33 -180 q -65 -149 -43 -180 q 21 71 -20 -31 q 83 222 62 172 q 157 392 105 273 q 232 564 210 511 z "},":":{"ha":325,"x_min":26,"x_max":345,"o":"m 35 78 q 26 115 26 94 q 46 181 26 148 q 98 233 66 214 q 170 256 131 256 q 217 244 196 256 q 248 214 238 233 q 256 176 256 197 q 237 111 256 143 q 184 58 218 79 q 111 36 151 36 q 35 78 56 36 m 123 403 q 115 440 115 419 q 135 507 115 473 q 186 559 154 540 q 258 581 221 581 q 336 539 315 581 q 345 501 345 522 q 325 436 345 468 q 273 383 306 404 q 201 361 241 361 q 123 403 144 361 z "},";":{"ha":334,"x_min":-41,"x_max":345,"o":"m 66 29 q 37 60 47 40 q 28 103 28 79 q 41 150 28 131 q 168 221 89 221 q 225 203 204 220 q 253 176 245 187 q 269 113 269 146 q 244 20 269 68 q 177 -66 218 -27 q 88 -129 136 -105 q -5 -153 40 -153 q -41 -149 -25 -153 q -26 -120 -41 -134 q 24 -77 -12 -106 q 74 -33 59 -49 q 89 -1 89 -17 q 66 29 89 17 m 123 403 q 115 440 115 419 q 135 507 115 473 q 186 559 154 540 q 258 581 221 581 q 336 539 315 581 q 345 501 345 522 q 325 436 345 468 q 273 383 306 404 q 201 361 241 361 q 123 403 144 361 z "},"=":{"ha":608,"x_min":-9,"x_max":586,"o":"m 17 500 q 32 538 32 511 q 33 550 33 544 q 33 575 33 555 l 583 650 q 585 634 583 644 q 586 619 586 624 q 575 591 586 606 q 562 562 562 576 q 563 553 562 559 q 566 539 564 547 q 567 525 567 531 l 0 433 q 0 453 0 446 q -1 469 -1 460 q 17 500 -1 486 m 8 283 q 24 321 24 294 q 25 333 24 327 q 25 358 25 339 l 575 433 q 576 417 575 427 q 578 403 578 408 q 567 375 578 389 q 554 346 554 361 q 555 339 554 343 q 557 330 556 334 q 558 321 557 325 q 558 309 558 317 l -8 216 q -8 237 -8 229 q -9 253 -9 244 q 8 283 -9 269 z "},"?":{"ha":742,"x_min":54,"x_max":886,"o":"m 62 37 q 54 77 54 57 q 63 122 54 98 q 89 167 72 146 q 127 201 105 187 q 203 224 163 224 q 285 179 261 224 q 293 140 293 161 q 273 71 293 104 q 219 15 254 37 q 144 -7 185 -7 q 62 37 85 -7 m 447 468 q 391 367 418 422 q 353 282 365 311 q 340 279 345 279 q 323 288 330 279 q 311 312 317 296 q 298 336 304 327 q 282 347 292 345 q 216 386 216 363 q 220 397 216 387 q 241 440 231 422 q 266 477 252 458 q 298 521 280 496 q 387 606 336 570 q 500 670 438 641 q 610 721 562 699 q 677 761 657 743 q 722 851 722 800 q 708 910 722 884 q 685 946 694 936 q 576 986 640 986 q 438 941 511 986 q 296 810 365 897 q 265 847 265 821 q 269 875 265 857 q 273 900 273 892 q 269 912 273 908 q 258 921 264 917 q 244 932 251 926 q 237 947 237 939 q 241 965 237 955 q 348 1058 307 1027 q 427 1101 389 1088 q 526 1124 464 1115 q 595 1129 574 1129 q 752 1093 687 1129 q 852 997 818 1057 q 886 871 886 937 q 800 668 886 754 q 731 626 779 646 q 637 588 683 606 q 541 541 591 570 q 447 468 491 513 z "},"A":{"ha":708,"x_min":-8,"x_max":814,"o":"m 637 854 l 385 485 l 553 511 l 637 854 m 755 1035 q 775 1040 756 1035 q 804 1044 795 1044 q 814 1039 814 1044 l 648 47 q 578 37 637 47 q 519 26 520 27 q 489 155 489 96 q 498 236 489 192 q 529 363 507 280 q 410 336 475 355 q 288 309 345 317 q 250 238 271 276 q 191 144 228 201 q 119 46 155 87 q 54 -14 83 4 q 26 22 48 1 q -2 52 5 43 q -8 77 -8 60 q 9 152 -8 114 q 62 247 26 189 q 109 325 98 304 q 113 340 113 331 q 108 359 113 350 q 96 380 104 369 q 79 407 89 392 q 149 422 117 414 q 191 433 180 430 q 219 478 199 448 q 273 555 239 509 q 506 852 444 774 q 608 970 569 930 q 697 1047 646 1010 q 729 1042 703 1047 q 755 1035 755 1037 z "},"B":{"ha":750,"x_min":0,"x_max":893,"o":"m 163 925 q 330 994 270 977 q 509 1036 389 1012 q 568 1042 544 1042 q 665 1031 613 1042 q 762 1001 718 1021 q 838 952 806 981 q 880 886 871 922 q 893 794 893 835 q 867 689 893 731 q 797 621 840 648 q 691 572 753 595 q 571 529 629 550 q 694 416 652 469 q 736 302 736 364 q 708 201 736 254 q 576 73 668 125 q 372 21 484 21 q 175 64 270 21 q 163 86 164 68 q 155 107 161 104 q 132 71 151 98 q 103 28 113 43 q 89 -3 94 13 q 65 9 71 0 q 54 29 60 18 q 32 47 48 41 q 12 67 24 54 q 0 83 0 79 q 67 297 19 168 q 174 555 116 425 q 263 751 231 684 q 311 850 296 818 q 271 841 288 846 q 215 821 253 836 q 163 802 178 807 q 160 816 161 809 q 158 829 158 823 q 163 860 158 842 q 168 884 168 878 q 165 903 168 889 q 163 925 163 916 m 558 913 q 516 899 538 909 q 486 886 494 888 l 363 608 q 568 654 478 620 q 706 740 657 688 q 755 848 755 791 q 718 884 745 868 q 658 907 691 899 q 593 916 625 916 q 558 913 578 916 m 307 454 q 244 322 269 377 q 192 196 220 267 q 254 244 220 225 q 314 262 288 262 q 345 256 333 262 q 335 240 343 247 q 307 221 326 233 q 283 204 288 209 q 272 182 272 190 q 296 155 272 169 q 436 177 375 155 q 532 247 498 199 q 567 368 567 295 q 512 420 540 403 q 435 446 484 437 q 307 454 386 454 z "},"C":{"ha":625,"x_min":-5,"x_max":810,"o":"m 155 705 q 625 1064 412 1047 q 687 1049 648 1064 q 730 1034 727 1034 q 761 1039 755 1036 q 810 1002 791 1011 q 793 904 810 946 q 751 830 777 863 q 684 756 726 798 q 612 682 642 715 q 586 689 600 684 q 556 702 572 693 q 526 718 539 711 q 547 786 532 755 q 578 847 563 817 q 600 914 594 878 q 510 876 562 907 q 391 771 457 845 q 262 583 325 697 q 211 483 234 532 q 173 383 188 433 q 158 288 158 332 q 184 189 158 233 q 261 138 216 138 q 339 170 297 138 q 420 250 380 201 q 509 365 460 298 q 567 444 557 432 q 574 449 572 449 q 579 447 576 449 q 587 446 583 446 q 586 426 587 440 q 585 404 585 412 q 587 385 585 390 q 590 366 590 376 q 562 253 590 325 q 488 113 534 181 q 390 16 441 45 q 302 -7 359 -7 q 208 9 258 -7 q 114 55 158 24 q 45 126 71 85 q -5 300 -5 194 q 10 419 -5 355 q 62 556 26 484 q 155 705 98 628 z "},"D":{"ha":833,"x_min":-18,"x_max":895,"o":"m 158 933 q 232 981 185 950 q 302 1023 279 1011 q 359 1044 324 1034 q 449 1059 395 1053 q 513 1063 481 1063 q 672 1035 601 1063 q 792 956 743 1006 q 868 838 842 906 q 895 688 895 770 q 879 562 895 621 q 752 313 847 441 q 475 92 656 184 q 32 0 294 0 q -18 78 7 57 l 302 873 q 242 844 281 865 q 178 818 203 823 q 158 933 158 873 m 479 890 l 193 167 q 418 226 329 182 q 558 327 508 270 q 639 448 608 384 q 688 553 669 513 q 721 692 721 624 q 663 834 721 779 q 479 890 604 890 z "},"E":{"ha":733,"x_min":3,"x_max":953,"o":"m 293 965 q 412 992 349 982 q 548 1010 475 1003 q 700 1026 621 1018 q 859 1044 779 1035 q 892 1037 887 1044 q 905 1000 897 1029 q 929 983 924 991 q 941 961 935 975 q 953 940 946 947 q 887 924 943 938 q 777 897 831 910 q 657 871 722 884 q 528 848 593 859 l 429 646 l 728 671 q 741 633 741 659 q 743 619 741 624 q 759 592 746 613 q 771 557 771 571 q 548 503 665 528 q 361 478 430 478 q 310 399 333 434 q 263 321 288 363 q 221 237 239 279 q 195 155 203 195 q 282 172 223 160 q 376 190 342 183 q 455 201 411 196 q 539 205 499 205 q 663 187 610 205 q 673 132 672 166 q 677 82 674 98 l 39 -16 q 3 45 36 28 q 25 193 6 125 q 73 316 44 260 q 139 433 101 372 q 186 511 177 494 q 169 561 181 528 q 154 602 157 595 q 203 614 178 608 q 244 623 228 619 q 275 678 265 659 q 325 776 285 697 q 371 867 364 854 q 352 869 360 868 q 338 872 344 871 q 326 878 332 874 q 302 913 308 891 q 293 965 296 935 z "},"F":{"ha":692,"x_min":-1,"x_max":1004,"o":"m 227 575 q 271 659 243 605 q 328 765 300 712 q 372 848 356 819 q 351 852 364 851 q 332 856 338 852 q 315 882 317 868 q 310 946 313 897 q 490 981 398 961 q 640 1014 581 1000 q 756 1037 699 1028 q 861 1046 812 1046 q 951 1038 906 1046 q 959 1022 954 1032 q 979 989 964 1011 q 992 960 989 967 q 997 944 996 954 q 1004 911 999 934 q 763 891 865 903 q 615 868 662 880 q 562 851 568 857 q 483 739 534 814 q 400 599 432 664 l 684 631 q 697 605 694 621 q 701 574 699 589 q 733 507 730 520 l 326 439 l 115 -8 q 36 37 73 4 q -1 94 -1 70 q 15 140 7 119 q 35 191 23 161 q 63 257 47 221 q 94 335 78 293 q 121 391 110 371 q 145 433 132 412 q 165 467 159 454 q 168 473 167 469 q 170 490 170 478 q 151 559 170 521 q 161 562 159 562 q 164 562 163 562 q 158 561 161 562 q 153 559 155 560 l 227 575 z "},"G":{"ha":758,"x_min":-9,"x_max":842,"o":"m 29 479 q 164 740 90 632 q 348 925 238 847 q 614 1048 458 1004 q 637 1051 625 1051 q 678 1050 644 1051 q 743 1048 712 1048 q 760 1015 753 1031 l 817 1015 q 835 937 835 972 q 816 871 835 898 q 751 796 798 844 q 679 707 705 749 q 621 736 637 715 q 581 812 604 757 q 631 901 607 836 q 508 865 566 898 q 391 767 450 832 q 264 600 332 702 q 190 453 222 541 q 158 286 158 364 q 183 178 158 221 q 275 122 214 122 q 375 154 323 122 q 462 237 427 186 q 497 338 497 288 q 492 374 497 359 q 449 367 479 371 q 403 360 420 363 q 363 350 387 357 q 464 496 372 451 q 682 541 556 541 q 817 528 760 541 q 830 485 824 503 q 839 447 836 467 q 842 399 842 428 q 806 400 822 399 q 766 400 790 400 q 671 389 713 400 q 638 296 661 366 q 596 181 616 227 q 547 95 577 135 q 475 32 517 55 q 311 -5 409 -5 q 147 25 224 -5 q 36 106 70 55 q -9 283 -9 165 q 29 479 -9 385 z "},"H":{"ha":861,"x_min":8,"x_max":1121,"o":"m 550 1010 q 579 1016 562 1012 q 613 1023 596 1019 q 640 1026 629 1026 q 656 1023 653 1026 l 454 603 l 751 628 q 822 760 777 683 q 915 913 866 838 q 990 1021 963 988 q 1003 1023 993 1023 q 1036 1021 1017 1023 q 1057 1018 1055 1019 q 1070 1024 1061 1019 q 1095 1029 1080 1029 q 1121 1026 1109 1029 l 642 -3 q 617 8 627 2 q 600 20 607 14 q 586 31 593 27 q 554 40 580 34 q 513 53 528 46 q 497 68 498 59 q 525 178 507 127 q 575 291 543 228 q 630 394 608 353 q 671 481 652 435 q 592 474 669 481 q 450 460 516 468 q 378 449 384 452 q 358 418 373 446 q 314 333 342 391 q 255 209 286 275 q 151 -9 224 144 q 121 -1 135 -8 q 90 19 107 6 q 66 37 73 33 q 36 50 63 40 q 8 69 9 60 q 51 175 28 121 q 93 268 73 228 q 140 358 113 309 q 195 461 166 408 q 179 514 189 478 q 165 568 169 551 q 218 584 194 578 q 254 590 243 589 q 309 682 277 618 q 385 829 341 745 q 486 1004 429 913 q 503 1010 490 1006 q 524 1015 515 1015 q 550 1010 536 1015 z "},"I":{"ha":367,"x_min":-14,"x_max":579,"o":"m 165 519 q 269 726 204 610 q 392 932 333 842 q 463 1022 450 1022 q 489 1019 479 1019 q 522 1022 500 1019 q 554 1025 544 1025 q 579 1022 571 1025 l 110 -1 q 41 19 61 3 q -14 81 21 34 q 53 256 26 185 q 95 358 81 327 q 126 430 109 389 q 165 519 144 471 z "},"J":{"ha":616,"x_min":-4,"x_max":893,"o":"m 596 753 q 685 915 631 815 q 753 1023 739 1015 q 811 1036 771 1036 q 868 1026 843 1036 q 893 999 893 1016 q 796 759 846 863 q 631 447 745 654 q 443 132 513 235 q 354 21 372 30 q 271 5 323 5 q 143 30 205 5 q 57 97 82 55 q -4 302 -4 212 q 7 368 -4 340 q 43 413 18 396 q 109 433 68 431 q 148 337 134 389 q 173 247 161 285 q 203 188 184 210 q 262 163 222 166 q 355 307 316 241 q 432 446 393 372 q 509 594 470 520 q 596 753 547 667 z "},"K":{"ha":859,"x_min":11,"x_max":1079,"o":"m 307 720 q 422 949 399 904 q 461 1008 446 995 q 547 1023 482 1023 q 612 1019 576 1023 l 427 635 l 1035 999 l 1067 981 q 1079 930 1079 950 q 1074 886 1079 927 l 517 498 q 587 393 557 439 q 650 292 617 347 q 716 172 683 237 q 762 57 749 106 q 716 50 734 56 q 668 29 699 43 q 618 12 636 14 l 358 427 q 316 344 335 382 q 245 203 296 307 q 146 -1 195 100 q 101 24 126 1 q 74 49 77 47 q 50 60 66 55 q 24 71 35 64 q 11 87 14 77 q 53 187 13 98 q 152 398 94 275 q 307 720 211 522 z "},"L":{"ha":725,"x_min":11,"x_max":681,"o":"m 533 1029 q 563 1035 549 1031 q 587 1039 577 1039 q 614 1036 602 1039 l 204 155 q 246 160 205 155 q 337 170 287 165 q 464 178 387 174 q 656 182 541 182 q 676 105 671 127 q 681 41 681 82 q 603 26 648 33 q 490 12 558 19 q 365 3 421 5 q 254 0 308 0 q 39 16 121 0 q 11 58 26 51 q 80 246 12 75 q 235 606 147 417 q 412 937 323 795 q 434 972 424 955 q 458 1013 444 989 q 482 1019 470 1015 q 508 1025 494 1023 q 533 1029 522 1028 z "},"M":{"ha":1067,"x_min":14,"x_max":1310,"o":"m 1069 993 q 1154 1040 1109 1040 l 1203 1040 q 1227 1046 1208 1042 q 1261 1053 1246 1050 q 1283 1055 1276 1055 q 1310 1048 1301 1055 l 905 41 q 813 58 864 41 q 739 93 763 75 l 1059 771 l 503 25 q 419 80 446 35 q 385 154 391 125 q 423 287 397 205 q 475 457 448 368 q 524 623 503 545 q 553 757 545 701 l 123 -12 q 61 31 105 -11 q 14 103 16 73 q 59 210 37 164 q 129 339 81 256 q 279 602 176 423 q 385 771 326 683 q 487 921 443 859 q 549 1007 531 983 q 591 1018 569 1018 q 605 1018 600 1018 q 614 1017 609 1017 q 626 1015 620 1016 q 637 1014 632 1015 q 671 1020 645 1014 q 713 1026 697 1026 q 722 983 722 1012 q 689 790 722 920 q 583 404 656 660 q 639 463 613 431 q 687 526 665 494 q 731 590 709 558 q 772 643 753 621 q 834 721 806 688 q 918 816 863 755 q 1007 918 972 878 q 1069 993 1043 958 z "},"N":{"ha":817,"x_min":3,"x_max":1023,"o":"m 591 371 q 646 493 614 410 q 724 688 679 576 q 815 889 769 800 q 913 1040 862 979 q 944 1032 928 1040 q 965 1022 960 1023 q 1000 1018 985 1020 q 1023 1014 1015 1017 l 616 29 q 523 46 566 29 q 472 85 479 62 q 448 199 457 134 q 433 363 439 264 q 421 585 426 462 q 415 713 416 708 l 125 -8 q 53 25 94 -3 q 35 33 50 27 q 12 43 20 38 q 3 60 4 49 q 233 686 18 239 q 308 833 269 759 q 371 956 347 908 q 437 994 399 985 q 542 1002 476 1002 l 591 371 z "},"O":{"ha":791,"x_min":5,"x_max":904,"o":"m 211 24 q 56 129 106 55 q 5 307 5 203 q 50 525 5 410 q 175 746 95 639 q 358 928 256 852 q 568 1029 460 1004 q 627 1036 600 1036 q 736 1009 686 1036 q 825 935 787 981 q 884 829 863 888 q 904 711 904 770 q 900 660 904 684 q 828 445 884 559 q 688 229 772 330 q 504 67 603 127 q 307 7 406 7 q 211 24 258 7 m 604 885 q 410 767 490 842 q 287 605 331 692 q 224 434 242 517 q 207 282 207 351 q 225 180 207 190 q 289 165 254 165 q 436 233 360 165 q 579 407 513 301 q 690 622 646 513 q 742 806 733 730 q 698 873 716 851 q 647 895 680 895 q 604 885 627 895 z "},"P":{"ha":800,"x_min":11,"x_max":970,"o":"m 184 896 q 279 944 235 926 q 368 975 322 962 q 486 1000 414 987 q 587 1010 533 1010 q 777 971 690 1010 q 917 861 864 933 q 970 692 970 789 q 919 573 966 634 q 799 462 872 513 q 646 382 726 411 q 501 353 566 353 q 357 443 385 353 q 285 284 330 376 q 143 -3 240 191 q 112 2 124 -3 q 85 17 99 7 q 66 29 71 26 q 47 37 61 33 q 24 46 33 41 q 11 61 15 52 l 66 228 l 355 819 q 276 799 325 812 q 184 782 227 786 q 182 802 182 789 q 184 822 182 809 q 187 840 187 835 q 184 861 187 849 q 182 878 182 872 q 184 896 182 889 m 542 840 q 457 668 509 774 q 404 562 404 562 q 448 584 427 578 q 507 589 469 589 q 474 567 497 579 q 441 544 451 555 q 431 513 431 533 q 643 551 549 516 q 789 638 736 586 q 842 739 842 690 q 798 787 836 763 q 704 828 760 811 q 593 844 648 844 q 542 840 566 844 z "},"Q":{"ha":750,"x_min":7,"x_max":864,"o":"m 123 625 q 248 810 203 751 q 356 912 292 869 q 524 986 420 956 q 610 1000 570 1000 q 714 977 667 1000 q 795 910 762 954 q 847 812 829 867 q 864 696 864 758 q 859 625 864 656 q 809 441 840 517 q 744 319 778 366 q 654 215 710 272 q 583 142 597 158 l 755 22 l 755 -9 q 750 -39 755 -27 q 729 -71 745 -50 q 665 -107 698 -98 q 605 -55 640 -80 q 537 -8 569 -30 q 472 47 506 14 q 399 31 435 39 q 328 16 363 22 q 268 6 292 9 q 216 3 243 3 q 94 41 140 3 q 22 175 47 79 q 7 285 7 224 q 123 625 7 441 m 571 852 q 377 711 470 817 q 227 474 285 604 q 168 257 168 345 q 187 185 168 212 q 243 158 206 158 q 281 164 260 158 q 245 235 245 201 q 262 273 245 258 q 306 289 279 288 q 379 273 326 289 q 446 254 433 257 q 532 363 464 278 q 633 498 600 449 q 689 605 667 547 q 711 722 711 662 q 686 846 711 785 q 625 860 665 860 q 571 852 594 860 z "},"R":{"ha":742,"x_min":-4,"x_max":864,"o":"m 143 916 q 254 969 204 951 q 375 1000 304 987 q 486 1010 429 1010 q 644 994 567 1010 q 780 942 722 977 q 852 854 838 907 q 864 774 864 809 q 739 551 864 633 q 424 437 614 469 q 478 371 437 411 q 567 287 519 332 q 651 197 615 242 q 699 106 687 151 q 703 92 703 100 q 694 67 703 81 q 684 45 686 53 q 672 14 678 31 q 657 -17 665 -3 l 293 345 l 144 8 q 53 41 105 16 q 22 52 45 45 q -4 69 -1 58 l 326 817 q 228 805 266 812 q 131 781 189 798 q 137 843 132 799 q 143 916 143 888 m 498 842 l 363 559 q 535 616 484 597 q 632 662 587 635 q 704 724 677 688 q 730 806 730 761 q 608 844 709 844 q 555 843 591 844 q 498 842 518 842 z "},"S":{"ha":791,"x_min":-22,"x_max":920,"o":"m 204 654 q 258 771 204 711 q 429 885 312 832 q 721 964 546 938 q 779 970 768 970 q 867 942 834 970 q 920 848 901 913 q 833 760 895 798 q 685 717 771 722 q 667 739 681 724 q 653 764 653 753 q 685 806 653 781 q 591 784 642 796 q 495 754 541 771 q 415 710 449 737 q 376 646 380 682 q 443 613 385 626 q 581 582 501 600 q 694 541 661 564 q 787 396 787 477 q 714 221 787 331 q 583 106 675 164 q 377 10 490 48 q 174 -28 264 -28 q 61 -5 104 -28 q -22 113 -22 37 q 7 206 -22 159 q 88 290 37 254 q 197 340 140 327 q 221 320 215 330 q 233 289 228 311 q 162 237 192 270 q 123 160 132 204 q 172 143 134 143 q 386 192 250 143 q 489 234 444 210 q 566 299 534 258 q 603 392 597 339 q 541 429 600 412 q 396 471 482 445 q 257 541 310 498 q 204 654 205 583 z "},"T":{"ha":475,"x_min":7,"x_max":848,"o":"m 9 867 q 369 933 216 911 q 762 985 522 956 q 782 977 772 985 q 811 961 792 969 q 828 932 819 947 q 843 903 837 917 q 848 880 848 890 q 708 847 763 861 q 590 815 653 833 q 469 782 527 797 q 439 719 461 768 q 374 562 416 671 q 319 429 355 515 q 260 290 283 342 q 206 163 237 237 q 136 -7 174 89 q 92 17 119 -5 q 60 41 64 39 q 35 52 46 47 q 16 63 23 57 q 9 74 9 68 l 296 768 q 183 758 234 764 q 41 732 132 751 q 29 754 32 741 q 26 794 26 768 q 23 815 26 806 q 16 831 19 825 q 9 842 12 837 q 7 852 7 848 q 9 867 7 856 z "},"U":{"ha":675,"x_min":37,"x_max":950,"o":"m 231 364 q 207 262 207 309 q 245 174 209 198 q 269 170 259 170 q 410 274 333 170 q 572 545 487 379 q 721 832 658 711 q 806 961 784 954 q 921 987 890 987 q 950 965 950 987 q 939 929 950 953 q 827 690 923 899 q 649 336 732 482 q 468 92 566 190 q 269 -7 370 -7 q 231 -3 249 -7 q 37 214 37 30 q 64 375 37 286 q 136 560 92 465 q 213 716 180 655 q 322 914 246 777 q 363 931 340 925 q 400 937 387 937 q 423 940 406 937 q 454 943 440 943 q 484 939 469 943 l 231 364 z "},"V":{"ha":608,"x_min":22,"x_max":1028,"o":"m 228 314 q 297 385 238 319 q 455 559 356 450 q 668 789 554 669 q 917 1046 782 909 q 945 1048 925 1048 q 990 1042 973 1048 q 1028 996 1028 1029 l 142 -4 q 116 2 127 -3 q 95 13 105 6 q 74 25 84 19 q 44 36 65 31 q 22 46 24 41 q 68 361 22 142 q 147 681 114 580 q 180 792 159 720 q 212 896 201 864 q 235 943 224 928 q 274 971 245 961 q 336 982 303 982 q 385 972 370 982 l 228 314 z "},"W":{"ha":842,"x_min":-66,"x_max":1250,"o":"m 614 468 l 1097 1034 q 1149 1042 1105 1042 q 1208 1036 1188 1042 q 1229 1032 1218 1034 q 1244 1027 1239 1029 q 1250 1021 1250 1025 l 543 64 q 497 77 524 64 q 456 98 470 90 q 433 110 448 104 q 411 120 419 115 q 403 129 404 124 l 519 611 l 83 0 q -66 93 1 17 q -12 286 -45 160 q 56 521 22 411 q 130 725 90 631 q 216 892 169 819 q 244 900 227 900 q 258 899 254 900 q 272 898 262 899 q 292 896 282 897 q 305 897 296 896 q 322 899 313 898 q 336 900 331 899 q 353 900 342 900 q 376 893 372 900 l 135 317 q 183 382 154 340 q 235 457 212 425 q 286 528 258 490 q 457 749 375 648 q 589 904 540 850 q 644 960 637 957 q 711 978 686 973 q 748 982 719 978 q 799 986 777 986 l 614 468 z "},"X":{"ha":867,"x_min":-25,"x_max":1092,"o":"m 557 679 q 666 781 579 698 q 794 901 753 863 q 885 979 836 939 q 960 1025 935 1019 q 1042 1018 1025 1025 q 1067 1016 1056 1018 q 1085 1011 1078 1015 q 1092 1006 1092 1008 q 1060 965 1092 1000 q 982 883 1028 930 q 887 788 935 836 q 771 681 839 741 q 659 575 701 617 q 604 517 618 532 q 630 418 612 488 q 671 247 648 348 q 705 61 694 145 q 681 53 701 53 q 655 55 669 53 q 636 58 642 57 q 595 51 627 58 q 555 43 564 43 q 538 116 548 77 q 517 197 529 155 q 490 303 506 240 q 468 389 473 366 l 61 -1 q 47 5 52 -1 q 38 22 43 12 q 29 39 33 32 q 1 59 26 43 q -25 85 -23 74 q 100 256 3 154 q 313 464 197 358 q 428 572 428 570 q 398 686 420 598 q 345 926 376 774 q 359 943 348 938 q 383 951 371 949 q 415 957 395 954 q 441 962 434 960 q 456 972 446 965 q 476 983 467 979 q 494 987 486 987 q 535 811 521 880 q 557 679 550 741 z "},"Y":{"ha":492,"x_min":37,"x_max":848,"o":"m 293 611 q 383 714 338 663 q 501 847 428 765 q 618 976 574 929 q 692 1048 663 1023 q 699 1051 694 1051 q 726 1041 709 1051 q 749 1029 743 1031 q 829 1032 773 1032 q 848 1029 848 1029 q 706 860 819 987 q 486 618 592 733 q 330 450 380 504 q 303 376 313 405 q 267 266 294 347 q 214 113 239 185 q 170 -4 188 41 q 100 32 130 12 q 37 82 71 52 q 83 215 58 144 q 135 357 108 286 q 180 481 161 429 q 165 529 176 493 q 138 628 155 564 q 101 783 121 692 q 66 978 82 874 q 85 985 70 985 q 128 980 100 985 q 157 975 155 975 q 175 976 167 976 q 193 977 182 977 q 212 971 205 977 l 293 611 z "},"Z":{"ha":892,"x_min":24,"x_max":1065,"o":"m 444 903 q 573 941 507 929 q 774 971 640 954 q 932 983 870 983 q 1043 971 1002 983 q 1053 924 1053 953 q 1047 890 1053 903 q 1056 853 1047 886 q 1065 799 1065 820 l 350 171 q 498 197 433 185 q 596 215 563 210 q 661 220 629 220 q 715 214 694 220 q 734 183 727 211 q 750 127 742 155 q 766 101 752 123 q 779 71 779 79 q 774 60 779 63 q 550 43 663 52 q 321 26 437 35 q 143 13 205 17 q 68 9 82 9 q 38 45 52 19 q 24 93 24 72 q 29 110 24 106 l 844 829 l 393 717 q 415 767 393 731 q 440 812 437 803 q 437 863 437 812 q 444 903 437 899 z "},"\\":{"ha":567,"x_min":-7,"x_max":693,"o":"m 604 -135 q 535 -24 593 -135 q 405 241 477 87 q 290 494 332 395 q 216 667 268 548 q 141 837 163 786 q 78 989 119 888 q -7 1207 37 1090 q 12 1231 4 1223 q 25 1239 19 1239 q 46 1237 28 1239 q 82 1235 64 1235 l 693 -135 q 672 -138 685 -138 q 651 -135 665 -138 q 628 -132 637 -132 q 604 -135 614 -132 z "},"_":{"ha":783,"x_min":0,"x_max":833,"o":"m 0 0 l 0 71 l 833 71 l 833 0 l 0 0 z "},"a":{"ha":591,"x_min":-9,"x_max":729,"o":"m 595 682 q 611 700 599 688 q 627 718 623 711 q 692 715 666 718 q 719 710 711 715 q 729 701 727 705 l 408 0 q 395 -4 402 -4 q 379 -1 389 -4 q 363 5 370 1 q 347 12 357 8 q 320 3 340 11 q 292 -5 300 -5 q 279 7 279 -5 q 319 97 279 31 q 244 38 299 71 q 153 -4 190 5 q 129 -7 139 -7 q 73 4 102 -7 q 21 36 43 16 q -3 79 0 56 q -9 134 -9 104 q 14 242 -9 182 q 100 390 38 303 q 306 600 186 513 q 546 686 425 686 q 595 682 570 686 m 536 576 q 359 484 454 565 q 199 297 264 402 q 135 121 135 192 q 211 142 174 122 q 281 196 248 162 q 340 265 315 230 q 403 358 365 300 q 536 576 515 529 z "},"b":{"ha":575,"x_min":-7,"x_max":668,"o":"m 110 524 q 300 874 255 791 q 372 1007 345 957 q 414 1080 399 1057 q 450 1131 429 1103 q 460 1133 456 1133 q 497 1114 474 1133 q 522 1093 520 1094 q 549 1083 542 1087 q 564 1067 557 1079 l 310 625 q 533 734 441 734 q 648 653 612 734 q 668 551 668 608 q 653 455 668 505 q 600 344 638 405 q 496 220 561 283 q 325 69 421 138 q 140 0 229 0 q 56 24 92 0 q -7 160 -7 62 q 12 286 -7 218 q 59 418 31 354 q 110 524 87 483 m 236 395 q 175 287 212 360 q 139 147 139 213 q 155 144 144 144 q 293 218 205 144 q 448 393 381 292 q 515 579 515 495 q 493 587 507 587 q 373 528 450 587 q 236 395 296 469 z "},"c":{"ha":567,"x_min":0,"x_max":707,"o":"m 18 111 q 0 195 0 136 q 26 334 0 257 q 110 489 53 411 q 257 631 167 568 q 468 724 347 694 q 505 729 494 729 q 570 713 541 729 q 606 679 600 696 q 625 686 614 686 q 672 667 648 686 q 707 625 696 647 q 666 565 707 609 q 578 480 625 520 q 514 440 530 441 q 503 444 517 440 q 486 447 490 447 l 469 482 q 446 493 460 485 q 432 515 432 501 q 452 551 443 534 q 477 588 462 568 q 515 629 492 608 q 354 533 440 616 q 208 343 268 450 q 149 172 149 237 q 164 123 149 139 q 224 107 191 107 q 366 167 292 107 q 476 304 439 227 q 482 283 482 293 q 480 273 481 277 q 478 264 479 269 q 476 256 477 259 q 483 238 477 254 q 489 204 489 222 q 432 99 473 146 q 333 25 391 52 q 218 -1 276 -1 q 18 111 90 -1 z "},"d":{"ha":625,"x_min":-7,"x_max":926,"o":"m 790 1089 q 812 1100 806 1098 q 828 1104 819 1102 q 856 1109 838 1105 q 875 1112 867 1112 q 908 1107 894 1112 q 926 1095 922 1103 l 436 -8 q 414 -2 425 -8 q 392 14 403 4 q 374 29 382 23 q 329 40 335 29 q 334 64 331 52 q 342 89 337 76 q 352 114 347 102 q 359 144 357 127 q 110 -16 207 -16 q 1 79 37 -16 q -7 136 -7 102 q 37 323 -7 216 q 166 532 81 430 q 370 700 251 635 q 635 765 490 765 l 790 1089 m 571 648 q 362 541 460 629 q 205 344 265 453 q 146 170 146 235 q 155 132 146 143 q 231 165 188 132 q 306 236 273 199 q 384 332 338 273 q 446 407 429 390 q 516 536 471 454 q 571 648 560 619 z "},"e":{"ha":604,"x_min":0,"x_max":660,"o":"m 24 74 q 0 171 0 111 q 37 339 0 248 q 143 509 75 429 q 308 641 211 589 q 518 692 405 692 q 621 644 583 688 q 660 539 660 600 q 635 449 660 492 q 500 336 593 382 q 340 270 439 301 q 158 235 242 239 q 146 178 146 191 q 183 126 146 144 q 231 119 199 119 q 380 160 301 119 q 501 275 460 201 q 507 232 507 271 q 524 215 509 228 q 539 196 539 201 q 468 91 523 138 q 338 16 414 44 q 193 -12 262 -12 q 24 74 64 -12 m 524 539 q 472 557 510 557 q 414 546 447 557 q 292 479 343 519 q 199 371 241 438 q 289 392 221 375 q 389 419 357 410 q 493 472 455 444 q 530 522 530 499 q 524 539 530 529 z "},"f":{"ha":534,"x_min":29,"x_max":793,"o":"m 685 1036 l 690 1029 q 705 1036 694 1032 q 728 1040 715 1040 q 775 988 757 1036 q 793 884 793 939 q 784 821 793 846 q 757 789 774 795 q 716 804 738 789 q 678 851 694 819 q 657 929 661 884 q 625 899 643 916 q 584 853 608 882 q 543 792 561 824 q 504 708 524 760 l 644 720 l 668 692 l 693 672 l 690 635 q 447 581 688 635 q 285 252 449 581 q 238 155 265 211 q 190 55 211 98 q 158 -11 168 11 q 131 -1 141 -9 q 111 23 121 8 q 97 41 102 37 q 63 57 94 44 q 29 79 31 69 q 68 159 49 119 q 107 239 87 199 q 98 221 107 239 q 97 216 97 217 q 96 215 96 216 q 164 340 99 215 q 273 549 230 465 q 218 530 258 547 q 155 513 178 513 q 135 562 135 545 q 123 579 134 574 q 103 590 112 584 q 94 614 95 596 q 242 666 178 650 q 334 686 306 682 q 415 843 359 753 q 532 996 470 932 q 639 1060 593 1060 q 685 1036 667 1060 z "},"g":{"ha":597,"x_min":-64,"x_max":733,"o":"m 650 681 q 684 686 661 681 q 717 690 707 690 q 733 685 728 690 q 657 522 724 661 q 529 259 591 384 q 454 114 467 135 q 394 -15 437 83 q 329 -156 350 -112 q 273 -258 307 -201 q 211 -336 238 -316 q 138 -359 180 -359 q 45 -333 92 -359 q -33 -265 -3 -306 q -64 -186 -64 -224 q -31 -121 -64 -146 q -3 -117 -16 -117 q 64 -151 37 -117 q 114 -244 92 -185 q 222 -60 172 -170 q 265 26 245 -12 q 313 121 285 64 q 208 28 266 66 q 98 -9 149 -9 q 52 2 74 -9 q 13 38 30 13 q -16 103 -5 63 q 5 226 -16 150 q 80 391 26 302 q 231 562 133 479 q 475 696 330 645 q 535 691 498 696 q 576 668 572 686 q 589 682 578 668 q 607 704 600 695 q 633 693 621 704 q 650 681 644 682 m 435 549 q 310 463 382 528 q 185 318 238 397 q 132 184 132 239 q 142 146 132 161 q 231 194 171 146 q 360 317 291 243 q 474 456 430 392 q 518 551 518 520 q 515 566 518 561 q 498 571 510 571 q 478 567 489 571 q 451 556 467 564 q 435 549 436 549 z "},"h":{"ha":575,"x_min":-43,"x_max":661,"o":"m 538 1100 q 562 1095 562 1100 q 567 1084 567 1093 q 526 969 567 1056 q 414 746 485 883 q 342 597 344 610 q 401 637 356 606 q 478 683 447 669 q 541 697 509 697 q 635 659 589 697 q 661 599 661 635 q 651 543 661 572 q 626 479 642 513 q 591 401 610 444 q 419 -3 494 154 q 398 0 407 -3 q 379 9 389 3 q 365 19 369 15 q 353 29 361 22 q 309 56 323 44 q 293 85 295 68 q 323 158 301 106 q 370 265 345 211 q 410 355 391 317 q 444 426 428 394 q 476 494 460 458 q 510 567 493 529 q 374 505 428 549 q 280 393 319 460 q 180 195 240 326 q 82 -9 121 65 q 47 -1 61 -9 q 24 18 33 7 q 7 37 14 28 q -23 58 -7 47 q -43 85 -39 68 q 13 209 -21 130 q 77 355 47 288 q 129 469 107 422 q 172 557 151 515 q 255 732 195 604 q 343 917 315 859 q 403 1035 371 975 q 441 1099 435 1095 q 445 1105 442 1100 q 452 1114 448 1110 q 461 1118 456 1118 q 479 1105 471 1118 q 500 1092 490 1092 q 517 1096 505 1092 q 538 1100 530 1100 z "},"i":{"ha":325,"x_min":-11,"x_max":509,"o":"m 368 747 q 350 810 350 772 q 372 887 350 851 q 429 936 395 923 l 452 939 q 509 876 509 929 q 491 816 509 848 q 447 762 474 784 q 395 741 420 741 q 368 747 382 741 m 262 321 q 230 241 241 270 q 202 168 219 213 q 165 77 184 123 q 131 -1 146 32 q 118 -4 121 -4 q 78 12 100 -4 q 41 43 56 27 q -11 102 -11 68 q 134 386 45 220 q 202 511 164 444 q 262 614 240 579 q 293 654 285 649 q 307 659 299 659 q 328 654 315 659 q 347 648 340 649 q 370 654 355 648 q 395 660 385 660 q 412 650 406 660 q 374 568 401 627 q 312 434 346 509 q 262 321 279 359 z "},"j":{"ha":392,"x_min":-204,"x_max":643,"o":"m 465 758 q 446 810 446 777 q 468 886 446 845 q 528 956 490 927 q 578 965 550 965 q 623 954 605 965 q 643 925 642 943 q 612 846 637 886 q 549 783 587 807 q 465 758 511 758 m -14 -153 l 378 640 q 393 643 383 643 q 412 637 401 643 q 431 629 422 631 q 461 637 441 630 q 492 644 482 644 q 518 631 505 644 q 372 307 437 457 q 260 53 306 157 q 185 -115 214 -52 q 132 -218 156 -178 q 68 -266 114 -250 q -29 -282 22 -282 q -131 -257 -105 -282 q -179 -186 -155 -233 q -204 -97 -204 -139 q -115 -9 -204 -24 q -82 -51 -96 -14 q -54 -118 -67 -87 q -14 -153 -41 -148 z "},"k":{"ha":583,"x_min":-61,"x_max":676,"o":"m 431 1007 q 466 1017 443 1011 q 510 1023 490 1023 q 533 1018 526 1023 q 504 945 522 984 q 432 798 486 907 q 344 616 378 689 q 278 468 310 543 q 343 508 298 479 q 435 568 389 537 q 535 636 488 604 q 606 685 583 669 q 615 657 615 680 q 612 623 615 639 q 624 607 612 618 q 648 585 636 595 q 668 566 661 574 q 676 551 676 558 q 556 485 598 510 q 336 347 515 459 q 394 288 354 330 q 492 172 433 245 q 587 40 551 99 q 535 32 585 33 q 468 26 485 31 q 446 8 465 25 q 410 -9 427 -9 q 346 86 383 31 q 288 170 309 142 q 247 227 268 197 q 208 281 225 256 l 62 -33 q 41 -25 50 -33 q 22 -1 33 -16 q 4 18 11 14 q -21 29 -3 22 q -50 43 -39 35 q -61 64 -60 52 q -15 168 -47 95 q 61 337 18 240 q 126 484 104 433 q 163 566 149 534 q 157 554 164 566 q 149 537 151 542 q 146 530 146 532 q 179 607 146 532 q 233 732 212 683 q 300 882 255 781 q 358 1013 345 983 q 376 1018 366 1018 q 404 1013 385 1018 q 431 1007 422 1007 z "},"l":{"ha":271,"x_min":-28,"x_max":534,"o":"m 406 928 q 416 932 410 932 q 442 925 426 932 q 458 918 458 918 q 486 929 467 919 q 515 939 505 939 q 534 932 526 939 q 472 812 515 897 q 373 610 429 728 q 278 397 316 492 q 220 240 252 331 q 169 89 189 149 q 140 1 149 28 q 75 16 111 3 q 21 43 39 30 q -1 54 14 50 q -22 60 -16 58 q -28 71 -28 63 q -25 81 -28 73 q 4 158 -7 128 q 29 217 16 189 q 75 312 41 246 q 149 458 108 378 q 406 928 316 793 z "},"m":{"ha":925,"x_min":-36,"x_max":983,"o":"m 623 576 q 743 647 663 605 q 890 689 823 689 q 950 668 929 689 q 983 587 983 635 q 976 535 983 562 q 955 475 968 507 q 929 414 941 444 q 853 217 892 318 q 784 54 814 115 q 737 -9 755 -7 q 704 6 715 -9 q 684 24 692 21 q 657 32 678 27 q 633 40 636 36 q 631 62 631 55 q 660 174 631 106 q 742 340 689 241 q 822 496 795 439 q 850 585 850 553 q 723 517 777 561 q 627 408 668 473 q 565 276 606 363 q 473 95 524 189 q 410 -1 423 0 q 386 2 395 -1 q 370 12 378 5 q 353 26 363 18 q 329 32 342 31 q 311 37 315 33 q 307 60 307 41 q 337 161 309 100 q 415 317 365 223 q 491 472 465 412 q 517 568 517 532 q 426 532 465 555 q 358 483 387 510 q 300 418 330 455 q 259 327 288 391 q 182 169 230 262 q 81 -11 134 76 q 58 -3 67 -11 q 40 17 49 5 q 28 32 32 29 q 5 36 24 35 q -24 41 -14 37 q -36 61 -35 46 q 129 400 74 294 q 205 563 150 444 q 271 692 260 682 q 283 697 277 697 q 301 689 290 697 q 318 681 313 681 q 341 689 324 682 q 366 696 359 696 q 380 688 374 696 q 368 651 377 674 q 355 618 359 627 q 349 590 351 608 q 416 634 382 612 q 484 672 450 656 q 547 688 518 688 q 616 652 590 688 q 627 612 627 640 q 625 590 627 598 q 623 576 624 581 z "},"n":{"ha":616,"x_min":-50,"x_max":646,"o":"m 403 8 q 375 21 386 8 q 353 39 364 35 q 324 45 341 44 q 300 52 307 47 q 293 69 293 56 q 321 173 295 111 q 400 344 347 236 q 475 496 454 452 q 503 575 496 540 q 423 536 463 565 q 347 467 384 507 q 286 398 309 427 q 228 325 262 369 q 172 203 214 291 q 62 -1 130 115 q 34 4 42 -1 q 19 23 25 10 q 8 41 14 35 q -18 53 -2 49 q -42 64 -35 58 q -50 85 -50 70 q -13 162 -43 99 q 42 278 17 225 q 95 385 67 330 q 140 473 122 439 q 226 653 209 618 q 253 703 243 688 q 264 710 258 710 q 289 697 273 710 q 310 684 304 684 q 336 691 317 684 q 363 697 354 697 q 379 690 374 697 q 365 650 373 665 q 335 597 356 634 q 380 626 355 610 q 429 656 405 643 q 478 677 454 669 q 526 685 503 685 q 603 659 566 685 q 646 564 646 625 q 543 285 646 471 q 479 162 502 210 q 443 83 457 114 q 403 8 429 53 z "},"o":{"ha":555,"x_min":-7,"x_max":610,"o":"m 98 17 q -7 203 -7 71 q 20 339 -7 267 q 94 481 46 412 q 207 609 142 551 q 350 705 272 667 q 435 726 391 726 q 519 701 481 726 q 581 636 557 676 q 610 557 605 595 q 575 382 610 481 q 484 193 541 283 q 352 45 426 102 q 201 -12 277 -12 q 98 17 147 -12 m 443 575 q 421 581 433 581 q 317 522 376 581 q 221 411 258 464 q 159 290 184 355 q 135 180 135 226 q 160 125 135 136 q 267 165 217 125 q 374 290 317 205 q 413 369 394 322 q 444 460 433 416 q 456 534 456 504 q 443 575 456 567 z "},"p":{"ha":570,"x_min":-201,"x_max":673,"o":"m 376 644 q 510 686 410 669 q 551 690 532 690 q 644 655 614 690 q 673 557 673 619 q 657 455 673 511 q 613 342 642 399 q 543 228 584 285 q 457 127 503 171 q 316 27 399 74 q 168 -20 233 -20 q 87 12 118 -20 l -83 -298 q -107 -291 -98 -296 q -124 -276 -116 -286 q -138 -261 -132 -266 q -161 -253 -144 -253 q -178 -254 -167 -253 q -195 -256 -190 -256 q -201 -243 -201 -256 l 257 689 q 334 701 262 689 q 372 705 352 705 q 396 700 391 705 q 391 675 395 692 q 376 644 387 659 m 318 465 q 153 150 218 286 q 195 136 170 136 q 273 160 229 136 q 359 225 316 184 q 431 310 402 267 q 513 504 513 439 q 467 547 513 547 q 386 524 425 547 q 318 465 346 500 z "},"q":{"ha":583,"x_min":-35,"x_max":728,"o":"m 72 386 q 159 496 111 444 q 262 588 207 548 q 384 656 317 628 q 518 692 450 684 q 552 684 532 692 q 583 672 572 677 l 615 707 q 694 705 677 707 q 715 690 705 703 q 728 675 725 677 l 212 -340 q 146 -313 193 -339 q 119 -291 127 -301 q 111 -258 111 -280 q 140 -174 117 -221 q 212 -48 164 -127 q 278 65 260 31 q 172 9 216 29 q 86 -11 127 -11 q -28 92 4 -11 q -35 144 -35 115 q -7 256 -35 198 q 72 386 20 315 m 478 581 q 347 497 413 547 q 226 382 281 446 q 137 248 170 318 q 104 106 104 177 q 309 249 191 106 q 513 534 427 393 q 522 566 522 555 q 500 583 522 583 q 478 581 492 583 z "},"r":{"ha":503,"x_min":-3,"x_max":650,"o":"m 339 572 q 459 659 378 609 q 582 724 539 709 q 601 710 595 718 q 610 690 607 701 q 618 661 613 678 q 631 644 621 655 q 645 625 641 632 q 650 611 650 618 q 647 599 650 603 q 469 514 530 545 q 358 446 408 483 q 277 367 308 408 q 111 -1 229 288 q 69 17 85 1 q 47 43 53 33 q 23 55 41 50 q 1 63 5 60 q -3 75 -3 65 q 33 189 7 110 q 102 374 58 268 q 188 566 136 455 q 241 677 239 677 q 262 685 251 685 q 284 685 273 685 q 313 684 296 684 q 340 699 319 685 q 376 713 361 713 q 399 707 388 713 q 339 572 376 662 z "},"s":{"ha":625,"x_min":-41,"x_max":721,"o":"m 131 486 q 207 618 131 562 q 435 705 283 675 q 498 711 462 711 q 576 704 538 711 q 643 683 614 696 q 679 654 671 669 q 705 624 690 643 q 721 596 721 605 q 718 564 721 586 q 713 529 715 542 q 651 472 677 493 q 590 438 625 452 q 514 425 555 425 q 488 489 488 443 q 494 524 488 515 q 546 551 517 541 q 597 571 575 561 q 493 585 543 585 q 381 564 431 585 q 304 515 332 544 q 334 452 304 477 q 433 385 363 426 q 536 310 502 343 q 570 228 570 277 q 512 130 561 176 q 393 49 463 83 q 283 14 349 26 q 160 1 217 1 q 96 5 123 1 q -5 52 32 17 q -41 139 -41 87 q -33 191 -41 163 q 1 244 -24 218 q 61 287 26 270 q 126 304 96 304 q 205 243 186 304 q 145 216 162 226 q 119 188 127 205 q 110 138 110 171 q 154 121 115 121 q 300 153 216 121 q 404 222 384 186 q 373 279 404 258 q 274 336 342 301 q 170 405 205 372 q 131 486 134 437 z "},"t":{"ha":486,"x_min":60,"x_max":772,"o":"m 579 754 q 654 758 578 754 q 772 764 730 762 q 771 748 772 757 q 763 726 770 739 q 746 705 757 713 q 739 689 739 699 q 740 679 740 684 q 741 668 741 675 q 733 648 741 657 q 602 638 661 646 q 518 627 542 631 q 480 553 508 607 q 408 412 453 500 q 312 220 363 323 q 193 -24 260 116 q 182 -26 185 -26 q 157 -14 168 -26 q 137 18 146 -1 q 125 40 127 37 q 92 49 119 49 q 60 64 64 49 q 120 195 92 137 q 185 318 149 252 q 261 452 222 384 q 357 625 300 521 q 187 610 349 625 q 168 616 168 610 q 179 638 168 620 q 189 668 189 656 q 180 686 187 672 q 172 705 172 700 q 183 729 172 717 q 312 745 250 742 q 428 757 374 749 q 443 783 434 767 q 475 840 452 800 q 507 896 498 881 q 549 967 526 926 q 583 1028 572 1008 q 621 1040 600 1036 q 648 1044 643 1043 q 689 1038 669 1044 q 717 1019 709 1031 q 677 945 703 994 q 626 846 652 897 q 579 754 600 794 z "},"u":{"ha":667,"x_min":-4,"x_max":760,"o":"m 9 81 q -4 146 -4 108 q 47 327 -4 222 q 166 527 99 433 q 296 697 233 621 q 313 701 304 701 q 339 695 324 701 q 359 688 355 688 q 382 692 366 688 q 407 696 399 696 q 427 682 421 696 q 291 467 338 543 q 212 338 243 391 q 165 249 181 285 q 150 191 150 213 q 157 165 150 176 q 255 216 203 172 q 390 367 307 260 q 608 671 474 475 q 632 684 617 684 q 661 676 642 684 q 689 669 680 669 q 715 679 699 669 q 741 689 732 689 q 760 679 751 689 l 450 -9 q 429 -5 435 -9 q 417 8 423 -1 q 406 21 411 17 q 379 29 401 25 q 358 43 358 33 q 371 116 358 76 q 387 170 385 157 q 346 133 380 166 q 279 72 312 100 q 204 21 247 44 q 122 -3 161 -3 q 9 81 53 -3 z "},"v":{"ha":555,"x_min":64,"x_max":785,"o":"m 64 31 q 79 238 64 70 q 105 518 94 406 q 123 694 117 631 q 151 701 138 701 q 172 695 162 701 q 193 684 182 690 q 222 678 203 679 q 252 670 241 677 q 267 640 262 663 q 264 559 267 612 q 256 467 262 507 q 238 358 246 405 q 225 277 231 311 q 289 348 233 284 q 418 489 346 411 q 552 628 490 567 q 639 701 614 690 q 663 705 649 705 l 707 705 q 736 712 717 705 q 764 720 755 720 q 785 701 780 720 l 170 -1 q 161 -4 164 -4 q 141 5 155 -4 q 119 16 127 15 q 83 19 93 17 q 64 31 73 21 z "},"w":{"ha":840,"x_min":8,"x_max":1079,"o":"m 475 653 q 490 656 481 656 q 513 651 501 656 q 530 647 525 647 q 604 669 587 669 q 621 660 619 669 l 553 218 q 600 282 557 223 q 723 446 642 340 q 858 615 804 552 q 936 689 912 678 q 950 694 941 694 q 978 684 958 694 q 1003 673 998 673 q 1021 683 1008 674 q 1044 692 1034 692 q 1079 676 1061 692 l 547 -1 q 499 23 526 -1 q 464 49 472 47 q 447 48 456 49 q 427 47 438 48 q 392 56 400 47 q 389 86 389 56 q 411 200 389 95 q 464 429 433 306 q 413 358 437 391 q 372 301 389 324 q 343 260 356 277 q 319 225 331 243 q 243 126 308 208 q 136 -9 179 44 q 103 -2 116 -9 q 79 17 90 6 q 64 29 68 28 q 46 29 53 29 q 31 28 39 28 q 8 39 14 28 l 109 659 q 136 668 122 668 q 160 663 148 668 q 172 659 172 659 q 195 666 173 659 q 231 673 217 673 q 249 668 243 673 l 178 252 q 236 330 180 254 q 374 518 292 406 q 475 653 457 631 z "},"x":{"ha":604,"x_min":-1,"x_max":782,"o":"m 425 510 q 500 591 462 547 q 557 654 539 636 q 608 697 575 673 q 623 701 614 701 q 652 696 631 701 q 682 690 673 690 q 696 693 692 690 q 747 707 720 707 q 782 699 768 707 q 678 587 742 654 q 539 444 614 521 q 464 364 464 367 q 486 281 471 346 q 521 82 502 216 q 483 67 513 73 q 441 53 452 61 q 426 34 435 47 q 410 14 416 20 q 395 8 403 8 q 383 11 391 8 l 322 244 l 83 -11 q 29 35 48 4 q 8 79 17 55 q -1 121 -1 103 l 282 407 q 271 462 278 428 q 254 540 264 496 q 237 623 245 585 q 224 684 229 662 q 239 696 228 696 q 266 688 248 696 q 294 681 285 681 q 329 694 302 682 q 368 707 356 707 q 378 704 372 707 q 399 643 393 671 q 412 578 406 616 q 425 510 418 541 z "},"y":{"ha":558,"x_min":-83,"x_max":761,"o":"m 433 437 q 431 435 431 435 q 429 435 430 435 q 459 473 429 436 q 522 551 490 511 q 578 619 555 591 q 612 661 601 648 q 660 671 627 671 q 708 663 703 671 q 724 647 715 653 q 742 636 732 642 q 757 628 753 631 q 761 618 761 624 q 641 459 727 572 q 491 262 555 346 q 396 143 427 178 q 292 15 380 125 q 125 -196 204 -96 q 8 -345 45 -297 q -15 -333 -9 -342 q -27 -303 -21 -323 q -40 -278 -33 -284 q -83 -243 -83 -267 q -79 -229 -83 -235 l 132 83 q 109 500 109 195 q 113 677 109 618 q 118 682 114 680 q 127 685 121 685 q 193 629 155 685 q 208 625 201 625 q 228 630 214 625 q 248 635 241 635 q 275 615 263 635 l 258 201 q 312 273 277 227 q 380 366 346 319 q 433 437 414 412 z "},"z":{"ha":632,"x_min":-21,"x_max":734,"o":"m 180 539 q 159 562 178 546 q 140 590 140 578 q 143 602 140 593 q 237 621 186 613 q 321 631 288 628 q 420 641 355 635 q 510 648 486 646 q 567 652 532 652 q 594 651 579 652 q 644 647 610 650 q 701 644 679 645 q 711 625 711 636 q 706 607 711 622 q 701 583 701 593 q 714 565 703 577 q 730 549 726 553 q 734 539 734 545 q 677 488 715 522 q 561 388 639 454 q 435 282 483 321 q 315 195 382 240 q 214 129 248 151 q 290 135 235 129 q 367 142 346 140 q 415 144 387 144 q 525 135 467 144 q 534 118 534 126 q 529 98 534 112 q 524 77 524 83 q 534 62 526 71 q 547 44 542 54 q 551 22 551 35 l 29 -11 q 14 11 14 0 q 15 25 14 17 q 16 43 16 33 q 0 60 12 52 q -16 74 -11 68 q -21 93 -21 79 q 60 173 5 121 q 163 264 115 226 q 271 346 189 284 q 425 460 353 407 q 529 536 497 513 q 362 504 476 526 q 197 469 248 481 q 183 493 183 469 l 183 517 q 180 539 183 533 z "},"":{"ha":567,"x_min":18,"x_max":750,"o":"m 529 505 q 575 562 529 530 q 561 560 566 561 q 547 555 556 559 q 529 545 538 550 q 485 457 515 518 q 420 325 455 395 q 352 186 385 254 q 314 110 318 119 q 417 175 366 136 q 492 253 468 214 q 496 236 496 245 q 494 218 496 227 q 490 204 492 210 q 486 189 488 198 q 484 170 485 182 q 480 146 484 157 q 467 125 476 134 q 414 83 451 109 q 333 31 378 58 q 257 -7 289 5 q 218 -82 237 -45 q 179 -158 199 -120 l 53 -155 q 98 -69 71 -121 q 125 -12 125 -17 q 77 6 94 -7 q 53 35 61 18 q 24 100 44 51 q 18 138 18 112 q 39 253 18 184 q 109 397 60 321 q 240 541 158 473 q 437 648 323 608 q 468 709 437 650 q 518 808 498 769 l 661 812 l 576 661 q 622 645 593 656 q 663 623 651 633 q 672 625 668 625 q 716 600 690 625 q 750 551 742 574 q 712 505 750 536 q 631 446 674 473 q 571 419 587 419 q 559 436 571 420 q 542 465 548 452 q 531 491 534 481 q 529 505 529 501 m 168 90 q 274 297 183 125 q 367 469 364 469 q 214 284 280 389 q 147 122 147 179 q 155 92 147 104 q 163 91 161 92 q 168 90 165 91 z "},"":{"ha":492,"x_min":0,"x_max":558,"o":"m 279 338 q 207 328 245 328 q 101 354 148 328 q 27 429 54 380 q 0 542 0 477 q 21 654 0 597 q 82 761 43 711 q 172 846 121 810 q 279 896 224 882 q 351 905 315 905 q 500 847 442 905 q 558 692 558 788 q 536 577 558 633 q 476 472 514 520 q 388 389 439 425 q 279 338 336 353 z "},"":{"ha":700,"x_min":-25,"x_max":675,"o":"m 325 192 q 191 219 254 192 q 78 294 127 245 q 2 408 29 343 q -25 542 -25 472 q 22 716 -25 636 q 150 844 69 797 q 325 892 231 892 q 463 864 399 892 q 573 789 526 836 q 648 678 621 741 q 675 542 675 614 q 628 366 675 446 q 500 239 581 286 q 325 192 420 192 m 50 542 q 72 435 50 487 q 133 343 94 382 q 224 283 173 304 q 329 262 275 262 q 470 300 406 262 q 571 401 533 337 q 608 542 608 465 q 571 682 608 618 q 470 783 534 745 q 329 821 406 821 q 221 799 272 821 q 132 739 171 777 q 72 649 94 701 q 50 542 50 597 m 179 410 q 170 452 170 424 q 183 520 170 481 q 225 598 197 559 q 298 668 254 637 q 404 714 342 699 q 427 717 411 717 q 457 709 444 717 q 472 692 470 701 q 484 696 478 696 q 507 686 495 696 q 524 667 518 677 q 503 637 524 659 q 458 594 482 614 q 427 572 433 573 q 418 576 423 574 q 412 578 413 578 l 404 593 q 393 598 399 594 q 386 610 386 603 q 395 628 390 618 q 409 648 401 637 q 428 667 416 658 q 346 617 389 659 q 273 523 302 575 q 243 437 243 471 q 252 414 243 421 q 281 407 262 407 q 352 436 314 407 q 408 504 389 466 q 411 494 411 501 q 410 488 410 491 q 408 482 410 485 q 411 472 409 479 q 414 454 414 465 q 363 382 401 411 q 279 353 324 353 q 179 410 216 353 z "},"":{"ha":283,"x_min":5,"x_max":314,"o":"m 58 700 q 5 793 5 726 q 28 885 5 836 q 92 977 51 933 q 183 1044 134 1021 q 227 1055 204 1055 q 269 1043 250 1055 q 299 1011 287 1031 q 314 971 311 991 q 284 851 314 919 q 208 734 255 783 q 110 685 160 685 q 58 700 85 685 m 221 964 q 208 966 216 966 q 122 890 175 966 q 82 790 82 834 q 97 761 82 768 q 146 778 127 761 q 196 840 165 795 q 231 937 231 895 q 221 964 231 958 z "},"":{"ha":694,"x_min":0,"x_max":0,"o":""},"":{"ha":616,"x_min":-1,"x_max":611,"o":"m 17 500 q 32 538 32 511 q 33 550 33 544 q 33 575 33 555 l 608 633 q 610 617 608 627 q 611 603 611 608 q 600 575 611 589 q 587 546 587 560 q 588 539 587 543 q 590 530 589 534 q 591 521 591 525 q 591 509 591 517 l 0 433 q 0 453 0 446 q -1 469 -1 460 q 17 500 -1 486 z "},"":{"ha":925,"x_min":-1,"x_max":895,"o":"m 17 441 q 32 479 32 453 q 33 491 33 486 q 33 517 33 497 l 892 591 q 893 576 892 586 q 895 561 895 566 q 884 533 895 548 q 871 504 871 519 q 872 497 871 501 q 873 488 873 492 q 874 479 874 483 q 875 467 875 475 l 0 375 q 0 395 0 387 q -1 411 -1 402 q 17 441 -1 428 z "},"":{"ha":525,"x_min":-9,"x_max":591,"o":"m 510 1023 q 522 978 522 1005 q 511 934 522 956 q 485 903 500 912 q 461 872 461 889 q 477 840 461 857 q 528 796 494 823 q 576 754 562 769 q 591 726 591 740 q 554 722 573 722 q 461 746 510 722 q 372 809 413 770 q 307 895 332 848 q 282 986 282 943 q 297 1050 282 1024 q 326 1077 304 1061 q 383 1095 347 1094 q 510 1023 463 1095 m 218 1023 q 231 978 231 1005 q 220 934 231 955 q 193 903 210 913 q 170 872 170 889 q 186 840 170 857 q 236 796 202 823 q 285 754 270 769 q 300 726 300 740 q 262 722 281 722 q 170 746 218 722 q 81 809 121 770 q 15 895 40 848 q -9 986 -9 943 q 5 1050 -9 1024 q 34 1077 13 1061 q 92 1095 56 1094 q 218 1023 171 1095 z "},"":{"ha":667,"x_min":168,"x_max":770,"o":"m 275 888 q 248 919 258 898 q 237 962 237 939 q 250 1008 237 990 q 306 1063 277 1048 q 376 1079 335 1079 q 434 1062 412 1078 q 463 1035 455 1046 q 478 972 478 1006 q 436 850 478 911 q 329 748 393 789 q 205 707 264 707 q 168 711 185 707 q 186 743 168 726 q 235 783 205 760 q 282 824 266 807 q 298 857 298 842 q 275 888 298 873 m 567 888 q 539 919 550 898 q 529 962 529 939 q 542 1008 529 990 q 597 1063 568 1048 q 668 1079 627 1079 q 725 1062 704 1078 q 754 1035 747 1046 q 770 972 770 1006 q 727 850 770 911 q 621 748 685 789 q 497 707 556 707 q 460 711 477 707 q 478 743 460 726 q 527 783 496 760 q 574 824 557 807 q 590 857 590 842 q 567 888 590 873 z "},"":{"ha":250,"x_min":-9,"x_max":300,"o":"m 218 1023 q 231 978 231 1005 q 220 934 231 955 q 193 903 210 913 q 170 872 170 889 q 186 840 170 857 q 236 796 202 823 q 285 754 270 769 q 300 726 300 740 q 262 722 281 722 q 170 746 218 722 q 81 809 121 770 q 15 895 40 848 q -9 986 -9 943 q 5 1050 -9 1024 q 34 1077 13 1061 q 92 1095 56 1094 q 218 1023 171 1095 z "},"":{"ha":416,"x_min":210,"x_max":519,"o":"m 317 888 q 290 919 300 898 q 279 962 279 941 q 292 1008 279 989 q 328 1050 309 1034 q 370 1072 347 1065 q 418 1079 392 1079 q 475 1062 454 1078 q 504 1035 496 1046 q 519 972 519 1008 q 478 850 519 911 q 372 748 436 789 q 248 707 307 707 q 210 711 227 707 q 228 743 210 726 q 276 783 246 760 q 323 824 307 806 q 340 857 340 842 q 317 888 340 873 z "}}}
